<svg width="278" height="85" viewBox="0 0 278 85" fill="none" xmlns="http://www.w3.org/2000/svg">
<rect y="4" width="275" height="81" rx="40.5" fill="#545454"/>
<rect x="3" y="-0.00195312" width="275" height="81" rx="40.5" fill="#606060"/>
<path d="M238 80.998L133 80.9981V80.9981C133 71.6092 140.611 63.998 150 63.998L221 63.998C230.389 63.998 238 71.6092 238 80.998V80.998Z" fill="#ABABAB" fill-opacity="0.44"/>
<path d="M35 0L140 0V0C140 9.38884 132.389 17 123 17L52 17C42.6112 17 35 9.38884 35 0V0Z" fill="#ABABAB" fill-opacity="0.44"/>
<path d="M59.9961 46.6094C59.9961 48.3932 59.6836 49.9557 59.0586 51.2969C58.4466 52.625 57.6003 53.7318 56.5195 54.6172C55.4518 55.5026 54.1953 56.1667 52.75 56.6094C51.3177 57.0521 49.7747 57.2734 48.1211 57.2734C47.4831 57.2734 46.7799 57.1888 46.0117 57.0195C45.2565 56.8503 44.4883 56.6419 43.707 56.3945C42.9258 56.1341 42.1706 55.8607 41.4414 55.5742C40.7253 55.2747 40.0872 54.9948 39.5273 54.7344L40.3867 46.6875C41.4935 47.3516 42.7174 47.8594 44.0586 48.2109C45.4128 48.5495 46.7409 48.7188 48.043 48.7188C48.2904 48.7188 48.5898 48.7122 48.9414 48.6992C49.293 48.6732 49.625 48.6146 49.9375 48.5234C50.263 48.4193 50.5365 48.2695 50.7578 48.0742C50.9792 47.8789 51.0898 47.599 51.0898 47.2344C51.0898 46.987 51.0117 46.7786 50.8555 46.6094C50.6992 46.4271 50.4974 46.2839 50.25 46.1797C50.0026 46.0625 49.7227 45.9779 49.4102 45.9258C49.0977 45.8607 48.7917 45.8151 48.4922 45.7891C48.1927 45.763 47.9128 45.75 47.6523 45.75C47.3919 45.75 47.1836 45.75 47.0273 45.75C45.9076 45.75 44.8854 45.5547 43.9609 45.1641C43.0495 44.7734 42.2617 44.2331 41.5977 43.543C40.9466 42.8398 40.4388 42.013 40.0742 41.0625C39.7096 40.099 39.5273 39.0573 39.5273 37.9375C39.5273 36.401 39.8333 35.0273 40.4453 33.8164C41.0703 32.5924 41.8971 31.5573 42.9258 30.7109C43.9674 29.8516 45.1589 29.194 46.5 28.7383C47.8411 28.2826 49.2279 28.0547 50.6602 28.0547C51.2982 28.0547 51.9557 28.0807 52.6328 28.1328C53.3099 28.1719 53.9805 28.25 54.6445 28.3672C55.3216 28.4844 55.9792 28.6341 56.6172 28.8164C57.2552 28.9987 57.8607 29.2266 58.4336 29.5L57.6914 37.4297C56.806 37.1302 55.875 36.8828 54.8984 36.6875C53.9349 36.4792 52.9909 36.375 52.0664 36.375C51.8971 36.375 51.6758 36.3815 51.4023 36.3945C51.1419 36.3945 50.862 36.4141 50.5625 36.4531C50.276 36.4792 49.9831 36.5247 49.6836 36.5898C49.3841 36.6549 49.1172 36.7461 48.8828 36.8633C48.6484 36.9674 48.4596 37.1107 48.3164 37.293C48.1732 37.4753 48.1081 37.6901 48.1211 37.9375C48.1341 38.224 48.2383 38.4583 48.4336 38.6406C48.6419 38.8099 48.9023 38.9466 49.2148 39.0508C49.5404 39.1419 49.8919 39.207 50.2695 39.2461C50.6602 39.2852 51.0443 39.3112 51.4219 39.3242C51.7995 39.3242 52.151 39.3242 52.4766 39.3242C52.8021 39.3112 53.069 39.3177 53.2773 39.3438C54.319 39.4089 55.2565 39.6302 56.0898 40.0078C56.9232 40.3854 57.6263 40.8867 58.1992 41.5117C58.7852 42.1367 59.2279 42.8854 59.5273 43.7578C59.8398 44.6172 59.9961 45.5677 59.9961 46.6094ZM83.7422 28.8359C83.6641 30.0599 83.5924 31.2708 83.5273 32.4688C83.4622 33.6667 83.3776 34.8776 83.2734 36.1016L74.9922 36.5312L74.7969 38.9922H80.6172L80.1875 45.0469L74.3281 45.2422L74.1328 48.0938H78.9766H82.4141C82.3359 49.526 82.2513 50.9518 82.1602 52.3711C82.082 53.7773 82.0104 55.1901 81.9453 56.6094L65.1094 57L65.7344 28.8359H83.7422ZM106.922 28.8359C106.844 30.0599 106.772 31.2708 106.707 32.4688C106.642 33.6667 106.557 34.8776 106.453 36.1016L98.1719 36.5312L97.9766 38.9922H103.797L103.367 45.0469L97.5078 45.2422L97.3125 48.0938H102.156H105.594C105.516 49.526 105.431 50.9518 105.34 52.3711C105.262 53.7773 105.19 55.1901 105.125 56.6094L88.2891 57L88.9141 28.8359H106.922ZM153.613 28.5234L151.816 57.1953L142.91 57.5859L142.988 42.4688L138.965 54.6562H135.527L132.441 43.7578L132.402 56.4141L123.379 56.6875L123.77 29.6953L133.809 29.3047L137.793 42.2344L143.105 28.5234H153.613ZM182.926 43.2109C182.926 44.3958 182.789 45.5417 182.516 46.6484C182.242 47.7422 181.845 48.7708 181.324 49.7344C180.816 50.6979 180.191 51.5833 179.449 52.3906C178.72 53.1849 177.893 53.8685 176.969 54.4414C176.057 55.0143 175.061 55.4635 173.98 55.7891C172.9 56.1016 171.754 56.2578 170.543 56.2578C169.371 56.2578 168.251 56.1081 167.184 55.8086C166.129 55.5091 165.139 55.0924 164.215 54.5586C163.29 54.0117 162.451 53.3607 161.695 52.6055C160.953 51.8372 160.315 50.9909 159.781 50.0664C159.26 49.1289 158.85 48.1263 158.551 47.0586C158.264 45.9909 158.121 44.8776 158.121 43.7188C158.121 42.5859 158.258 41.4792 158.531 40.3984C158.805 39.3047 159.195 38.276 159.703 37.3125C160.224 36.349 160.849 35.4635 161.578 34.6562C162.307 33.849 163.121 33.1523 164.02 32.5664C164.931 31.9805 165.914 31.5247 166.969 31.1992C168.023 30.8737 169.137 30.7109 170.309 30.7109C172.197 30.7109 173.915 31.0039 175.465 31.5898C177.027 32.1758 178.355 33.0156 179.449 34.1094C180.556 35.1901 181.409 36.5052 182.008 38.0547C182.62 39.5911 182.926 41.3099 182.926 43.2109ZM174.254 43.7188C174.254 43.1589 174.169 42.6185 174 42.0977C173.844 41.5638 173.609 41.0951 173.297 40.6914C172.984 40.2747 172.594 39.9427 172.125 39.6953C171.669 39.4349 171.142 39.3047 170.543 39.3047C169.931 39.3047 169.384 39.4154 168.902 39.6367C168.421 39.8581 168.004 40.1641 167.652 40.5547C167.314 40.9323 167.053 41.3815 166.871 41.9023C166.689 42.4102 166.598 42.9505 166.598 43.5234C166.598 44.0703 166.676 44.6172 166.832 45.1641C166.988 45.7109 167.223 46.2057 167.535 46.6484C167.848 47.0911 168.232 47.4492 168.688 47.7227C169.156 47.9961 169.697 48.1328 170.309 48.1328C170.921 48.1328 171.467 48.0156 171.949 47.7812C172.444 47.5339 172.861 47.2083 173.199 46.8047C173.538 46.388 173.798 45.9128 173.98 45.3789C174.163 44.8451 174.254 44.2917 174.254 43.7188ZM211.184 38.1719C211.184 39.1875 211.092 40.112 210.91 40.9453C210.741 41.7656 210.467 42.5208 210.09 43.2109C209.712 43.901 209.224 44.5391 208.625 45.125C208.026 45.7109 207.303 46.2708 206.457 46.8047L211.105 55.0859L202.316 56.8047L199.309 48.4844L196.887 48.5625L196.535 56.6875H188.137C188.202 53.7188 188.26 50.763 188.312 47.8203C188.378 44.8776 188.449 41.9219 188.527 38.9531C188.553 37.4557 188.579 35.9714 188.605 34.5C188.632 33.0286 188.684 31.5443 188.762 30.0469C189.673 29.7083 190.572 29.4284 191.457 29.207C192.342 28.9857 193.228 28.8164 194.113 28.6992C195.012 28.569 195.917 28.4844 196.828 28.4453C197.753 28.3932 198.697 28.3672 199.66 28.3672C201.145 28.3672 202.577 28.5755 203.957 28.9922C205.35 29.3958 206.581 30.0078 207.648 30.8281C208.716 31.6484 209.569 32.6706 210.207 33.8945C210.858 35.1185 211.184 36.5443 211.184 38.1719ZM202.434 38.7969C202.434 38.25 202.355 37.7487 202.199 37.293C202.056 36.8372 201.835 36.4466 201.535 36.1211C201.249 35.7826 200.884 35.5221 200.441 35.3398C200.012 35.1445 199.504 35.0469 198.918 35.0469C198.658 35.0469 198.404 35.0664 198.156 35.1055C197.909 35.1315 197.668 35.1771 197.434 35.2422L197.121 42.5078H197.59C198.15 42.5078 198.716 42.4362 199.289 42.293C199.875 42.1497 200.396 41.9284 200.852 41.6289C201.32 41.3294 201.698 40.9453 201.984 40.4766C202.284 40.0078 202.434 39.4479 202.434 38.7969ZM235.047 28.8359C234.969 30.0599 234.897 31.2708 234.832 32.4688C234.767 33.6667 234.682 34.8776 234.578 36.1016L226.297 36.5312L226.102 38.9922H231.922L231.492 45.0469L225.633 45.2422L225.438 48.0938H230.281H233.719C233.641 49.526 233.556 50.9518 233.465 52.3711C233.387 53.7773 233.315 55.1901 233.25 56.6094L216.414 57L217.039 28.8359H235.047Z" fill="white"/>
</svg>
