<svg width="278" height="85" viewBox="0 0 278 85" fill="none" xmlns="http://www.w3.org/2000/svg">
<rect y="4" width="275" height="81" rx="40.5" fill="#E86910"/>
<rect x="3" y="-0.00195312" width="275" height="81" rx="40.5" fill="#FF7D10"/>
<path d="M238 80.998L133 80.9981C133 71.6092 140.611 63.998 150 63.998L221 63.998C230.389 63.998 238 71.6092 238 80.998Z" fill="white" fill-opacity="0.2"/>
<path d="M35 0L140 0C140 9.38884 132.389 17 123 17L52 17C42.6112 17 35 9.38884 35 0Z" fill="white" fill-opacity="0.2"/>
<path d="M63.1289 47C63.1289 48.7839 62.8164 50.3268 62.1914 51.6289C61.5794 52.918 60.7331 53.9857 59.6523 54.832C58.5846 55.6654 57.3281 56.2839 55.8828 56.6875C54.4505 57.0781 52.9076 57.2734 51.2539 57.2734C50.6159 57.2734 49.9128 57.1888 49.1445 57.0195C48.3893 56.8503 47.6211 56.6419 46.8398 56.3945C46.0586 56.1341 45.3034 55.8607 44.5742 55.5742C43.8581 55.2747 43.2201 54.9948 42.6602 54.7344L43.5195 47.0781C44.6263 47.7422 45.8503 48.25 47.1914 48.6016C48.5456 48.9401 49.8737 49.1094 51.1758 49.1094C51.4232 49.1094 51.7227 49.1029 52.0742 49.0898C52.4258 49.0638 52.7578 49.0052 53.0703 48.9141C53.3958 48.8099 53.6693 48.6602 53.8906 48.4648C54.112 48.2695 54.2227 47.9896 54.2227 47.625C54.2227 47.3776 54.1445 47.1693 53.9883 47C53.832 46.8177 53.6302 46.6745 53.3828 46.5703C53.1354 46.4531 52.8555 46.3685 52.543 46.3164C52.2305 46.2513 51.9245 46.2057 51.625 46.1797C51.3255 46.1536 51.0456 46.1406 50.7852 46.1406C50.5247 46.1406 50.3164 46.1406 50.1602 46.1406C49.0404 46.1406 48.0182 45.9648 47.0938 45.6133C46.1823 45.2617 45.3945 44.7669 44.7305 44.1289C44.0794 43.4779 43.5716 42.6966 43.207 41.7852C42.8424 40.8607 42.6602 39.8385 42.6602 38.7188C42.6602 37.1823 42.9661 35.8086 43.5781 34.5977C44.2031 33.3737 45.0299 32.3385 46.0586 31.4922C47.1003 30.6328 48.2917 29.9753 49.6328 29.5195C50.974 29.0638 52.3607 28.8359 53.793 28.8359C54.431 28.8359 55.0885 28.862 55.7656 28.9141C56.4427 28.9531 57.1133 29.0312 57.7773 29.1484C58.4544 29.2656 59.112 29.4154 59.75 29.5977C60.388 29.7799 60.9935 30.0078 61.5664 30.2812L60.8242 38.2109C59.9388 37.9115 59.0078 37.6641 58.0312 37.4688C57.0677 37.2604 56.1237 37.1562 55.1992 37.1562C55.0299 37.1562 54.8086 37.1628 54.5352 37.1758C54.2747 37.1758 53.9948 37.1953 53.6953 37.2344C53.4089 37.2604 53.1159 37.306 52.8164 37.3711C52.5169 37.4362 52.25 37.5273 52.0156 37.6445C51.7812 37.7487 51.5924 37.8919 51.4492 38.0742C51.306 38.2565 51.2409 38.4714 51.2539 38.7188C51.2669 39.0052 51.3711 39.2266 51.5664 39.3828C51.7747 39.5391 52.0352 39.6562 52.3477 39.7344C52.6732 39.7995 53.0247 39.832 53.4023 39.832C53.793 39.832 54.1771 39.8255 54.5547 39.8125C54.9323 39.7865 55.2839 39.7669 55.6094 39.7539C55.9349 39.7279 56.2018 39.7214 56.4102 39.7344C57.4518 39.7995 58.3893 40.0208 59.2227 40.3984C60.056 40.776 60.7591 41.2773 61.332 41.9023C61.918 42.5273 62.3607 43.276 62.6602 44.1484C62.9727 45.0078 63.1289 45.9583 63.1289 47ZM86.8945 28.8359C86.8164 30.0599 86.7448 31.2708 86.6797 32.4688C86.6146 33.6667 86.5299 34.8776 86.4258 36.1016L78.1445 36.5312L77.9492 38.9922H83.7695L83.3398 45.0469L77.4805 45.2422L77.2852 48.0938H82.1289H85.5664C85.4883 49.526 85.4036 50.9518 85.3125 52.3711C85.2344 53.7773 85.1628 55.1901 85.0977 56.6094L68.2617 57L68.8867 28.8359H86.8945ZM110.074 28.8359C109.996 30.0599 109.924 31.2708 109.859 32.4688C109.794 33.6667 109.71 34.8776 109.605 36.1016L101.324 36.5312L101.129 38.9922H106.949L106.52 45.0469L100.66 45.2422L100.465 48.0938H105.309H108.746C108.668 49.526 108.583 50.9518 108.492 52.3711C108.414 53.7773 108.342 55.1901 108.277 56.6094L91.4414 57L92.0664 28.8359H110.074ZM156.766 28.5234L154.969 57.1953L146.062 57.5859L146.141 42.4688L142.117 54.6562H138.68L135.594 43.7578L135.555 56.4141L126.531 56.6875L126.922 29.6953L136.961 29.3047L140.945 42.2344L146.258 28.5234H156.766ZM186.078 43.2109C186.078 44.3958 185.941 45.5417 185.668 46.6484C185.395 47.7422 184.997 48.7708 184.477 49.7344C183.969 50.6979 183.344 51.5833 182.602 52.3906C181.872 53.1849 181.046 53.8685 180.121 54.4414C179.21 55.0143 178.214 55.4635 177.133 55.7891C176.052 56.1016 174.906 56.2578 173.695 56.2578C172.523 56.2578 171.404 56.1081 170.336 55.8086C169.281 55.5091 168.292 55.0924 167.367 54.5586C166.443 54.0117 165.603 53.3607 164.848 52.6055C164.105 51.8372 163.467 50.9909 162.934 50.0664C162.413 49.1289 162.003 48.1263 161.703 47.0586C161.417 45.9909 161.273 44.8776 161.273 43.7188C161.273 42.5859 161.41 41.4792 161.684 40.3984C161.957 39.3047 162.348 38.276 162.855 37.3125C163.376 36.349 164.001 35.4635 164.73 34.6562C165.46 33.849 166.273 33.1523 167.172 32.5664C168.083 31.9805 169.066 31.5247 170.121 31.1992C171.176 30.8737 172.289 30.7109 173.461 30.7109C175.349 30.7109 177.068 31.0039 178.617 31.5898C180.18 32.1758 181.508 33.0156 182.602 34.1094C183.708 35.1901 184.561 36.5052 185.16 38.0547C185.772 39.5911 186.078 41.3099 186.078 43.2109ZM177.406 43.7188C177.406 43.1589 177.322 42.6185 177.152 42.0977C176.996 41.5638 176.762 41.0951 176.449 40.6914C176.137 40.2747 175.746 39.9427 175.277 39.6953C174.822 39.4349 174.294 39.3047 173.695 39.3047C173.083 39.3047 172.536 39.4154 172.055 39.6367C171.573 39.8581 171.156 40.1641 170.805 40.5547C170.466 40.9323 170.206 41.3815 170.023 41.9023C169.841 42.4102 169.75 42.9505 169.75 43.5234C169.75 44.0703 169.828 44.6172 169.984 45.1641C170.141 45.7109 170.375 46.2057 170.688 46.6484C171 47.0911 171.384 47.4492 171.84 47.7227C172.309 47.9961 172.849 48.1328 173.461 48.1328C174.073 48.1328 174.62 48.0156 175.102 47.7812C175.596 47.5339 176.013 47.2083 176.352 46.8047C176.69 46.388 176.951 45.9128 177.133 45.3789C177.315 44.8451 177.406 44.2917 177.406 43.7188ZM214.336 38.1719C214.336 39.1875 214.245 40.112 214.062 40.9453C213.893 41.7656 213.62 42.5208 213.242 43.2109C212.865 43.901 212.376 44.5391 211.777 45.125C211.178 45.7109 210.456 46.2708 209.609 46.8047L214.258 55.0859L205.469 56.8047L202.461 48.4844L200.039 48.5625L199.688 56.6875H191.289C191.354 53.7188 191.413 50.763 191.465 47.8203C191.53 44.8776 191.602 41.9219 191.68 38.9531C191.706 37.4557 191.732 35.9714 191.758 34.5C191.784 33.0286 191.836 31.5443 191.914 30.0469C192.826 29.7083 193.724 29.4284 194.609 29.207C195.495 28.9857 196.38 28.8164 197.266 28.6992C198.164 28.569 199.069 28.4844 199.98 28.4453C200.905 28.3932 201.849 28.3672 202.812 28.3672C204.297 28.3672 205.729 28.5755 207.109 28.9922C208.503 29.3958 209.733 30.0078 210.801 30.8281C211.868 31.6484 212.721 32.6706 213.359 33.8945C214.01 35.1185 214.336 36.5443 214.336 38.1719ZM205.586 38.7969C205.586 38.25 205.508 37.7487 205.352 37.293C205.208 36.8372 204.987 36.4466 204.688 36.1211C204.401 35.7826 204.036 35.5221 203.594 35.3398C203.164 35.1445 202.656 35.0469 202.07 35.0469C201.81 35.0469 201.556 35.0664 201.309 35.1055C201.061 35.1315 200.82 35.1771 200.586 35.2422L200.273 42.5078H200.742C201.302 42.5078 201.868 42.4362 202.441 42.293C203.027 42.1497 203.548 41.9284 204.004 41.6289C204.473 41.3294 204.85 40.9453 205.137 40.4766C205.436 40.0078 205.586 39.4479 205.586 38.7969ZM238.199 28.8359C238.121 30.0599 238.049 31.2708 237.984 32.4688C237.919 33.6667 237.835 34.8776 237.73 36.1016L229.449 36.5312L229.254 38.9922H235.074L234.645 45.0469L228.785 45.2422L228.59 48.0938H233.434H236.871C236.793 49.526 236.708 50.9518 236.617 52.3711C236.539 53.7773 236.467 55.1901 236.402 56.6094L219.566 57L220.191 28.8359H238.199Z" fill="white"/>
</svg>
