<svg width="278" height="85" viewBox="0 0 278 85" fill="none" xmlns="http://www.w3.org/2000/svg">
<rect y="4" width="275" height="81" rx="40.5" fill="#E86910"/>
<rect x="3" y="-0.00195312" width="275" height="81" rx="40.5" fill="#FF7D10"/>
<path d="M238 80.998L133 80.9981V80.9981C133 71.6092 140.611 63.998 150 63.998L221 63.998C230.389 63.998 238 71.6092 238 80.998V80.998Z" fill="white" fill-opacity="0.2"/>
<path d="M35 0L140 0V0C140 9.38884 132.389 17 123 17L52 17C42.6112 17 35 9.38884 35 0V0Z" fill="white" fill-opacity="0.2"/>
<path d="M81.4844 47C81.4844 48.7839 81.1719 50.3268 80.5469 51.6289C79.9349 52.918 79.0885 53.9857 78.0078 54.832C76.9401 55.6654 75.6836 56.2839 74.2383 56.6875C72.806 57.0781 71.263 57.2734 69.6094 57.2734C68.9714 57.2734 68.2682 57.1888 67.5 57.0195C66.7448 56.8503 65.9766 56.6419 65.1953 56.3945C64.4141 56.1341 63.6589 55.8607 62.9297 55.5742C62.2135 55.2747 61.5755 54.9948 61.0156 54.7344L61.875 47.0781C62.9818 47.7422 64.2057 48.25 65.5469 48.6016C66.901 48.9401 68.2292 49.1094 69.5312 49.1094C69.7786 49.1094 70.0781 49.1029 70.4297 49.0898C70.7812 49.0638 71.1133 49.0052 71.4258 48.9141C71.7513 48.8099 72.0247 48.6602 72.2461 48.4648C72.4674 48.2695 72.5781 47.9896 72.5781 47.625C72.5781 47.3776 72.5 47.1693 72.3438 47C72.1875 46.8177 71.9857 46.6745 71.7383 46.5703C71.4909 46.4531 71.2109 46.3685 70.8984 46.3164C70.5859 46.2513 70.2799 46.2057 69.9805 46.1797C69.681 46.1536 69.401 46.1406 69.1406 46.1406C68.8802 46.1406 68.6719 46.1406 68.5156 46.1406C67.3958 46.1406 66.3737 45.9648 65.4492 45.6133C64.5378 45.2617 63.75 44.7669 63.0859 44.1289C62.4349 43.4779 61.9271 42.6966 61.5625 41.7852C61.1979 40.8607 61.0156 39.8385 61.0156 38.7188C61.0156 37.1823 61.3216 35.8086 61.9336 34.5977C62.5586 33.3737 63.3854 32.3385 64.4141 31.4922C65.4557 30.6328 66.6471 29.9753 67.9883 29.5195C69.3294 29.0638 70.7161 28.8359 72.1484 28.8359C72.7865 28.8359 73.444 28.862 74.1211 28.9141C74.7982 28.9531 75.4688 29.0312 76.1328 29.1484C76.8099 29.2656 77.4674 29.4154 78.1055 29.5977C78.7435 29.7799 79.349 30.0078 79.9219 30.2812L79.1797 38.2109C78.2943 37.9115 77.3633 37.6641 76.3867 37.4688C75.4232 37.2604 74.4792 37.1562 73.5547 37.1562C73.3854 37.1562 73.1641 37.1628 72.8906 37.1758C72.6302 37.1758 72.3503 37.1953 72.0508 37.2344C71.7643 37.2604 71.4714 37.306 71.1719 37.3711C70.8724 37.4362 70.6055 37.5273 70.3711 37.6445C70.1367 37.7487 69.9479 37.8919 69.8047 38.0742C69.6615 38.2565 69.5964 38.4714 69.6094 38.7188C69.6224 39.0052 69.7266 39.2266 69.9219 39.3828C70.1302 39.5391 70.3906 39.6562 70.7031 39.7344C71.0286 39.7995 71.3802 39.832 71.7578 39.832C72.1484 39.832 72.5326 39.8255 72.9102 39.8125C73.2878 39.7865 73.6393 39.7669 73.9648 39.7539C74.2904 39.7279 74.5573 39.7214 74.7656 39.7344C75.8073 39.7995 76.7448 40.0208 77.5781 40.3984C78.4115 40.776 79.1146 41.2773 79.6875 41.9023C80.2734 42.5273 80.7161 43.276 81.0156 44.1484C81.3281 45.0078 81.4844 45.9583 81.4844 47ZM110.035 29.5C109.449 34.0833 108.948 38.6471 108.531 43.1914C108.115 47.7227 107.717 52.2865 107.34 56.8828L99.332 57.4688L99.6836 54.4609C99.4232 54.7604 99.1172 55.0208 98.7656 55.2422C98.4271 55.4635 98.0625 55.6458 97.6719 55.7891C97.2812 55.9193 96.8776 56.0169 96.4609 56.082C96.0443 56.1341 95.6471 56.1536 95.2695 56.1406C94.3841 56.1276 93.5508 55.9583 92.7695 55.6328C91.9883 55.2943 91.2721 54.8516 90.6211 54.3047C89.9701 53.7448 89.3841 53.1003 88.8633 52.3711C88.3424 51.6289 87.8997 50.8542 87.5352 50.0469C87.1836 49.2266 86.9102 48.3932 86.7148 47.5469C86.5326 46.7005 86.4414 45.8802 86.4414 45.0859C86.4414 43.9141 86.4609 42.7031 86.5 41.4531C86.5521 40.1901 86.6367 38.9271 86.7539 37.6641C86.8711 36.401 87.0208 35.151 87.2031 33.9141C87.3984 32.6771 87.6393 31.4922 87.9258 30.3594C89.5143 30.4375 91.1094 30.5091 92.7109 30.5742C94.3125 30.6393 95.9076 30.6589 97.4961 30.6328C97.1966 31.7656 96.8971 32.9049 96.5977 34.0508C96.3112 35.1836 96.0508 36.3294 95.8164 37.4883C95.582 38.6341 95.3932 39.7865 95.25 40.9453C95.1068 42.1042 95.0352 43.276 95.0352 44.4609C95.0352 44.7344 95.0482 45.125 95.0742 45.6328C95.1003 46.1406 95.1654 46.6419 95.2695 47.1367C95.3867 47.6315 95.556 48.0677 95.7773 48.4453C96.0117 48.8099 96.3372 48.9922 96.7539 48.9922C97.2487 48.9922 97.6914 48.7839 98.082 48.3672C98.4727 47.9375 98.8177 47.3646 99.1172 46.6484C99.4167 45.9323 99.6706 45.1055 99.8789 44.168C100.1 43.2305 100.283 42.2539 100.426 41.2383C100.582 40.2096 100.706 39.1745 100.797 38.1328C100.888 37.0911 100.953 36.1146 100.992 35.2031C101.044 34.2786 101.077 33.4518 101.09 32.7227C101.116 31.9935 101.129 31.4271 101.129 31.0234C101.129 30.763 101.122 30.5091 101.109 30.2617C101.096 30.0143 101.077 29.7604 101.051 29.5C101.897 29.526 102.737 29.5456 103.57 29.5586C104.404 29.5716 105.243 29.5781 106.09 29.5781C106.741 29.5781 107.392 29.5781 108.043 29.5781C108.707 29.5651 109.371 29.5391 110.035 29.5ZM137.941 50.0469C137.941 51.1276 137.74 52.0586 137.336 52.8398C136.945 53.6211 136.418 54.2852 135.754 54.832C135.09 55.3789 134.322 55.8281 133.449 56.1797C132.59 56.5182 131.691 56.7852 130.754 56.9805C129.816 57.1758 128.872 57.306 127.922 57.3711C126.984 57.4362 126.105 57.4688 125.285 57.4688C124.478 57.4688 123.638 57.4362 122.766 57.3711C121.906 57.319 121.047 57.2214 120.188 57.0781C119.328 56.9349 118.482 56.7461 117.648 56.5117C116.815 56.2643 116.027 55.9583 115.285 55.5938L115.246 30.4375C115.975 30.138 116.75 29.8711 117.57 29.6367C118.391 29.3893 119.224 29.1875 120.07 29.0312C120.93 28.862 121.783 28.7383 122.629 28.6602C123.475 28.569 124.296 28.5234 125.09 28.5234C126.014 28.5234 126.945 28.582 127.883 28.6992C128.833 28.8164 129.745 29.0117 130.617 29.2852C131.49 29.5586 132.303 29.9167 133.059 30.3594C133.814 30.7891 134.471 31.3229 135.031 31.9609C135.604 32.599 136.047 33.3411 136.359 34.1875C136.685 35.0339 136.848 36.0104 136.848 37.1172C136.848 37.8464 136.743 38.5299 136.535 39.168C136.327 39.806 136.027 40.3789 135.637 40.8867C135.246 41.3945 134.771 41.8307 134.211 42.1953C133.651 42.5469 133.02 42.8073 132.316 42.9766C133.163 43.1979 133.931 43.5234 134.621 43.9531C135.324 44.3828 135.917 44.9036 136.398 45.5156C136.893 46.1276 137.271 46.8177 137.531 47.5859C137.805 48.3542 137.941 49.1745 137.941 50.0469ZM128.02 38.9141C128.02 38.5365 127.941 38.2174 127.785 37.957C127.629 37.6836 127.434 37.4622 127.199 37.293C126.978 37.1237 126.73 37 126.457 36.9219C126.197 36.8438 125.962 36.8047 125.754 36.8047C125.493 36.8047 125.24 36.8438 124.992 36.9219C124.745 37 124.504 37.0911 124.27 37.1953L124.152 41.5312C124.452 41.5312 124.823 41.5052 125.266 41.4531C125.708 41.401 126.132 41.2904 126.535 41.1211C126.952 40.9388 127.303 40.6784 127.59 40.3398C127.876 39.9883 128.02 39.513 128.02 38.9141ZM125.246 45.2812C124.868 45.2812 124.504 45.3203 124.152 45.3984L124.074 49.8516C124.27 49.8906 124.458 49.9297 124.641 49.9688C124.836 49.9948 125.025 50.0078 125.207 50.0078C125.48 50.0078 125.78 49.9818 126.105 49.9297C126.431 49.8646 126.737 49.7474 127.023 49.5781C127.31 49.3958 127.544 49.1549 127.727 48.8555C127.922 48.556 128.02 48.1589 128.02 47.6641C128.02 47.1693 127.922 46.7656 127.727 46.4531C127.544 46.1406 127.316 45.8997 127.043 45.7305C126.77 45.5482 126.47 45.431 126.145 45.3789C125.819 45.3138 125.52 45.2812 125.246 45.2812ZM177.137 43.7578C177.137 45.6198 177.078 47.4753 176.961 49.3242C176.844 51.1732 176.707 53.0286 176.551 54.8906L166.512 55.3594C166.811 53.0938 167.078 50.8281 167.312 48.5625C167.56 46.2839 167.684 44.0052 167.684 41.7266C167.684 41.5833 167.677 41.3359 167.664 40.9844C167.651 40.6198 167.625 40.2096 167.586 39.7539C167.56 39.2982 167.514 38.8294 167.449 38.3477C167.397 37.8529 167.319 37.4036 167.215 37C167.124 36.5833 167.007 36.2448 166.863 35.9844C166.72 35.724 166.551 35.5938 166.355 35.5938C165.9 35.5938 165.542 35.7695 165.281 36.1211C165.021 36.4596 164.826 36.8698 164.695 37.3516C164.578 37.8333 164.507 38.3281 164.48 38.8359C164.454 39.3307 164.441 39.7344 164.441 40.0469C164.441 40.5938 164.454 41.1406 164.48 41.6875C164.507 42.2344 164.52 42.7943 164.52 43.3672C164.52 45.3854 164.467 47.3971 164.363 49.4023C164.272 51.4076 164.155 53.4193 164.012 55.4375L154.754 55.7891C155.053 53.5234 155.314 51.2643 155.535 49.0117C155.77 46.7461 155.887 44.474 155.887 42.1953C155.887 42.0521 155.88 41.7917 155.867 41.4141C155.854 41.0365 155.828 40.6133 155.789 40.1445C155.763 39.6758 155.717 39.1875 155.652 38.6797C155.587 38.1719 155.503 37.7096 155.398 37.293C155.307 36.8633 155.19 36.5117 155.047 36.2383C154.904 35.9648 154.728 35.8281 154.52 35.8281C154.194 35.8281 153.921 35.9583 153.699 36.2188C153.478 36.4661 153.296 36.7917 153.152 37.1953C153.022 37.599 152.918 38.0482 152.84 38.543C152.775 39.0247 152.723 39.5 152.684 39.9688C152.658 40.4375 152.638 40.8737 152.625 41.2773C152.625 41.668 152.618 41.9609 152.605 42.1562L152.176 56.4141H142.332C142.54 54.2135 142.749 52.0065 142.957 49.793C143.178 47.5794 143.367 45.3724 143.523 43.1719C143.693 40.9583 143.829 38.7448 143.934 36.5312C144.038 34.3177 144.09 32.1042 144.09 29.8906L153.387 29.5L153.348 31.7656C153.634 31.401 153.96 31.0365 154.324 30.6719C154.689 30.2943 155.073 29.9622 155.477 29.6758C155.893 29.3763 156.329 29.1354 156.785 28.9531C157.254 28.7708 157.736 28.6797 158.23 28.6797C158.868 28.6797 159.441 28.7318 159.949 28.8359C160.457 28.9271 160.913 29.0898 161.316 29.3242C161.733 29.5586 162.098 29.8841 162.41 30.3008C162.723 30.7044 162.996 31.2188 163.23 31.8438C163.647 31.388 164.064 30.9648 164.48 30.5742C164.91 30.1836 165.359 29.8516 165.828 29.5781C166.297 29.2917 166.805 29.0703 167.352 28.9141C167.898 28.7578 168.504 28.6797 169.168 28.6797C170.431 28.6797 171.505 28.9271 172.391 29.4219C173.276 29.9036 174.012 30.5482 174.598 31.3555C175.197 32.1628 175.659 33.0872 175.984 34.1289C176.323 35.1706 176.577 36.2513 176.746 37.3711C176.915 38.4909 177.02 39.6042 177.059 40.7109C177.111 41.8177 177.137 42.8333 177.137 43.7578ZM193.129 29.5L191.762 56.1016L183.52 56.5312L182.738 30.0469L193.129 29.5ZM219.414 29.4609L219.219 37.7422L213.398 37.9766L212.695 56.1016L204.453 56.5312L203.711 38.4062L197.891 38.7188L198.125 29.5L219.414 29.4609Z" fill="white"/>
</svg>
