<?xml version="1.0" standalone="no"?>
<!DOCTYPE svg PUBLIC "-//W3C//DTD SVG 20010904//EN"
 "http://www.w3.org/TR/2001/REC-SVG-20010904/DTD/svg10.dtd">
<svg version="1.0" xmlns="http://www.w3.org/2000/svg"
 width="1000.000000pt" height="1000.000000pt" viewBox="0 0 1000.000000 1000.000000"
 preserveAspectRatio="xMidYMid meet">

<g transform="translate(0.000000,1000.000000) scale(0.100000,-0.100000)"
fill="#000000" stroke="none">
<path d="M531 4649 c-162 -73 -327 -335 -485 -771 l-46 -128 0 -1875 0 -1875
5000 0 5000 0 -1 1868 0 1867 -21 -55 c-165 -433 -260 -614 -394 -747 -273
-274 -540 -22 -818 772 -162 462 -290 719 -428 858 -140 142 -285 142 -427 0
-140 -141 -260 -385 -432 -873 -138 -390 -257 -618 -395 -758 -272 -273 -541
-20 -818 773 -162 462 -290 719 -428 858 -140 142 -285 142 -427 0 -140 -141
-260 -385 -432 -873 -138 -390 -257 -618 -395 -758 -272 -273 -541 -20 -818
773 -162 462 -290 719 -428 858 -140 142 -285 142 -427 0 -140 -141 -260 -385
-432 -873 -138 -390 -257 -618 -395 -758 -272 -273 -541 -20 -818 773 -162
462 -290 719 -428 858 -100 101 -208 131 -307 86z"/>
</g>
</svg>
