<svg
    width="100%"
    height="50%"
    viewBox="0 0 1000 1000"
    xmlns="http://www.w3.org/2000/svg"
    preserveAspectRatio="none"
    overflow="auto"
    shapeRendering="auto"
    fill="#ffffff"
    className={className}>
    <defs>
      <path
        d="M 0 2000 0 500 Q 20.5 417 41 500 t 41 0 41 0 41 0 41 0 41 0 41 0 41 0 41 0 41 0 41 0 41 0 41 0 41 0 41 0 41 0 41 0 41 0 41 0 41 0 41 0 41 0 41 0 41 0 41 0 41 0 41 0  v1000 z"
      />
    </defs>
    <g>
      <use href="#wavepath" y="-379" fill="#29B6F6"></use>
    </g>
  </svg>